<svg xmlns="http://www.w3.org/2000/svg" viewBox="0 0 200 200">
  <circle cx="100" cy="100" r="90" fill="#1E3A8A"/>
  <path d="M130,70 A30,30 0 0,1 100,100 A30,30 0 0,1 70,70 Q70,70 100,35 Q130,70 130,70 Z" fill="#FFFFFF"/>
  <path d="M130,130 A30,30 0 0,1 100,100 A30,30 0 0,1 130,70 Q130,70 100,105 Q130,130 130,130 Z" fill="#FFFFFF"/>
  <circle cx="85" cy="85" r="12" fill="#FCD34D"/>
  <path d="M115,85 L130,85 L122.5,72.5 Z" fill="#FFFFFF"/>
  <path d="M115,85 L130,85 L122.5,97.5 Z" fill="#FFFFFF"/>
  <path d="M75,135 A40,40 0 0,0 125,135 Q125,150 100,167 Q75,150 75,135 Z" fill="#FFFFFF" stroke="#1E3A8A" stroke-width="4"/>
  <path d="M60,40 A65,65 0 0,1 140,40" fill="none" stroke="#FCD34D" stroke-width="8" stroke-linecap="round"/>
  <rect x="65" y="160" width="70" height="18" fill="#1E3A8A"/>
  <text x="100" y="174" font-family="Arial" font-size="14" fill="#FFFFFF" text-anchor="middle">ДВГГТК</text>
</svg>
